<?xml version="1.0" encoding="UTF-8"?>
<!DOCTYPE svg PUBLIC "-//W3C//DTD SVG 1.1//EN" "http://www.w3.org/Graphics/SVG/1.1/DTD/svg11.dtd">
<svg xmlns="http://www.w3.org/2000/svg" version="1.1" width="500px" height="500px" style="shape-rendering:geometricPrecision; text-rendering:geometricPrecision; image-rendering:optimizeQuality; fill-rule:evenodd; clip-rule:evenodd" xmlns:xlink="http://www.w3.org/1999/xlink">
<g><path style="opacity:1" fill="#0658f5" d="M -0.5,-0.5 C 166.167,-0.5 332.833,-0.5 499.5,-0.5C 499.5,166.167 499.5,332.833 499.5,499.5C 332.833,499.5 166.167,499.5 -0.5,499.5C -0.5,332.833 -0.5,166.167 -0.5,-0.5 Z"/></g>
<g><path style="opacity:1" fill="#e8ebf2" d="M 306.5,208.5 C 313.56,207.725 316.06,210.725 314,217.5C 310.667,221.5 307.333,221.5 304,217.5C 302.927,213.9 303.76,210.9 306.5,208.5 Z"/></g>
<g><path style="opacity:1" fill="#eeeff2" d="M 225.5,209.5 C 227.5,209.5 229.5,209.5 231.5,209.5C 231.334,219.839 231.5,230.172 232,240.5C 237.167,235.333 242.333,230.167 247.5,225C 251.5,224.333 255.5,224.333 259.5,225C 253.652,230.681 247.985,236.515 242.5,242.5C 248.314,249.482 254.314,256.315 260.5,263C 256.167,263.667 251.833,263.667 247.5,263C 242.218,257.595 237.051,252.095 232,246.5C 231.501,252.157 231.334,257.824 231.5,263.5C 228.167,263.5 224.833,263.5 221.5,263.5C 221.5,245.833 221.5,228.167 221.5,210.5C 223.099,210.768 224.432,210.434 225.5,209.5 Z"/></g>
<g><path style="opacity:1" fill="#eaecf2" d="M 270.5,209.5 C 271.167,215.346 271.833,221.346 272.5,227.5C 273.107,227.376 273.44,227.043 273.5,226.5C 284.273,221.035 292.44,223.702 298,234.5C 298.5,244.161 298.666,253.828 298.5,263.5C 294.833,263.5 291.167,263.5 287.5,263.5C 287.666,254.494 287.5,245.494 287,236.5C 282.62,231.657 277.954,231.323 273,235.5C 272.5,244.827 272.334,254.161 272.5,263.5C 269.167,263.5 265.833,263.5 262.5,263.5C 262.181,245.757 262.514,228.09 263.5,210.5C 265.861,210.326 268.194,209.993 270.5,209.5 Z"/></g>
<g><path style="opacity:1" fill="#85aaf4" d="M 270.5,209.5 C 270.56,208.957 270.893,208.624 271.5,208.5C 272.167,214.654 272.833,220.654 273.5,226.5C 273.44,227.043 273.107,227.376 272.5,227.5C 271.833,221.346 271.167,215.346 270.5,209.5 Z"/></g>
<g><path style="opacity:1" fill="#f1f1f2" d="M 324.5,209.5 C 326.5,209.5 328.5,209.5 330.5,209.5C 330.5,227.5 330.5,245.5 330.5,263.5C 327.167,263.5 323.833,263.5 320.5,263.5C 320.5,245.833 320.5,228.167 320.5,210.5C 322.099,210.768 323.432,210.434 324.5,209.5 Z"/></g>
<g><path style="opacity:1" fill="#edeef2" d="M 185.5,211.5 C 190.099,211.2 194.599,211.533 199,212.5C 205.557,229.281 212.39,245.947 219.5,262.5C 215.5,263.833 211.5,263.833 207.5,262.5C 205.833,258.5 204.167,254.5 202.5,250.5C 195.167,249.167 187.833,249.167 180.5,250.5C 178.731,254.644 177.064,258.81 175.5,263C 171.789,263.825 168.122,263.659 164.5,262.5C 171.312,245.39 178.312,228.39 185.5,211.5 Z"/></g>
<g><path style="opacity:1" fill="#b7cbf3" d="M 263.5,210.5 C 262.514,228.09 262.181,245.757 262.5,263.5C 261.834,254.84 261.5,246.006 261.5,237C 261.502,227.807 262.168,218.974 263.5,210.5 Z"/></g>
<g><path style="opacity:1" fill="#2c62f5" d="M 191.5,222.5 C 194.632,228.45 196.965,234.784 198.5,241.5C 193.786,241.827 189.12,241.493 184.5,240.5C 186.841,234.471 189.175,228.471 191.5,222.5 Z"/></g>
<g><path style="opacity:1" fill="#e5e8f2" d="M 303.5,224.5 C 307.167,224.5 310.833,224.5 314.5,224.5C 314.5,237.5 314.5,250.5 314.5,263.5C 310.833,263.5 307.167,263.5 303.5,263.5C 303.5,250.5 303.5,237.5 303.5,224.5 Z"/></g>
<g><path style="opacity:1" fill="#1963f5" d="M 93.5,275.5 C 200.001,274.168 306.667,274.168 413.5,275.5C 410.914,276.48 408.247,276.813 405.5,276.5C 301.668,275.501 197.668,275.167 93.5,275.5 Z"/></g>
<g><path style="opacity:1" fill="#eff0f2" d="M 93.5,275.5 C 197.668,275.167 301.668,275.501 405.5,276.5C 304.313,279.956 203.147,283.956 102,288.5C 99.9063,288.464 97.9063,288.131 96,287.5C 95.479,283.394 94.6457,279.394 93.5,275.5 Z"/></g>
<g><path style="opacity:1" fill="#e6e9f2" d="M 204.5,312.5 C 210.83,311.666 213.663,314.333 213,320.5C 210.177,323.571 206.844,324.238 203,322.5C 200.729,318.697 201.229,315.363 204.5,312.5 Z"/></g>
<g><path style="opacity:1" fill="#eaecf2" d="M 314.5,313.5 C 315.167,319.346 315.833,325.346 316.5,331.5C 317.107,331.376 317.44,331.043 317.5,330.5C 328.273,325.035 336.44,327.702 342,338.5C 342.5,348.161 342.666,357.828 342.5,367.5C 338.833,367.5 335.167,367.5 331.5,367.5C 331.666,358.494 331.5,349.494 331,340.5C 326.62,335.657 321.954,335.323 317,339.5C 316.5,348.827 316.334,358.161 316.5,367.5C 313.167,367.5 309.833,367.5 306.5,367.5C 306.181,349.757 306.514,332.09 307.5,314.5C 309.861,314.326 312.194,313.993 314.5,313.5 Z"/></g>
<g><path style="opacity:1" fill="#85aaf4" d="M 314.5,313.5 C 314.56,312.957 314.893,312.624 315.5,312.5C 316.167,318.654 316.833,324.654 317.5,330.5C 317.44,331.043 317.107,331.376 316.5,331.5C 315.833,325.346 315.167,319.346 314.5,313.5 Z"/></g>
<g><path style="opacity:1" fill="#ebedf2" d="M 168.5,314.5 C 179.164,313.415 188.83,315.915 197.5,322C 195.69,324.644 193.69,327.144 191.5,329.5C 185.179,324.89 178.179,323.057 170.5,324C 164.874,326.487 164.208,329.82 168.5,334C 175.859,335.45 183.193,337.117 190.5,339C 200.396,346.516 201.062,354.849 192.5,364C 178.321,371.181 165.321,369.514 153.5,359C 155.31,356.356 157.31,353.856 159.5,351.5C 167.79,359.148 176.957,360.482 187,355.5C 187.944,352.653 187.444,350.153 185.5,348C 178.12,346.548 170.787,344.881 163.5,343C 155.495,338.133 153.328,331.3 157,322.5C 160.15,318.689 163.983,316.023 168.5,314.5 Z"/></g>
<g><path style="opacity:1" fill="#b7cbf3" d="M 307.5,314.5 C 306.514,332.09 306.181,349.757 306.5,367.5C 305.834,358.84 305.5,350.006 305.5,341C 305.502,331.807 306.168,322.974 307.5,314.5 Z"/></g>
<g><path style="opacity:1" fill="#ebedf2" d="M 235.5,327.5 C 243.464,326.899 249.631,329.899 254,336.5C 255.426,346.754 255.926,357.088 255.5,367.5C 251.833,367.5 248.167,367.5 244.5,367.5C 244.666,358.494 244.5,349.494 244,340.5C 239,335.167 234,335.167 229,340.5C 228.5,349.494 228.334,358.494 228.5,367.5C 225.167,367.5 221.833,367.5 218.5,367.5C 218.5,354.5 218.5,341.5 218.5,328.5C 221.833,328.5 225.167,328.5 228.5,328.5C 228.351,329.552 228.517,330.552 229,331.5C 231.013,329.752 233.18,328.418 235.5,327.5 Z"/></g>
<g><path style="opacity:1" fill="#eceef2" d="M 271.5,328.5 C 277.328,328.05 282.995,328.716 288.5,330.5C 291.899,328.688 295.566,328.021 299.5,328.5C 299.937,344.224 299.437,359.891 298,375.5C 293.327,381.77 286.993,384.436 279,383.5C 274.299,383.721 269.799,382.887 265.5,381C 264.59,377.623 265.59,374.79 268.5,372.5C 274.013,374.45 279.68,374.95 285.5,374C 288.77,371.624 289.936,368.458 289,364.5C 275.991,370.828 266.324,367.494 260,354.5C 257.074,342.695 260.908,334.028 271.5,328.5 Z"/></g>
<g><path style="opacity:1" fill="#f1f1f2" d="M 202.5,328.5 C 205.833,328.5 209.167,328.5 212.5,328.5C 212.5,341.5 212.5,354.5 212.5,367.5C 209.167,367.5 205.833,367.5 202.5,367.5C 202.5,354.5 202.5,341.5 202.5,328.5 Z"/></g>
<g><path style="opacity:1" fill="#175bf5" d="M 277.5,336.5 C 281.54,336.118 285.207,337.118 288.5,339.5C 289.663,344.802 289.829,350.136 289,355.5C 288.097,356.701 286.931,357.535 285.5,358C 273.523,360.355 268.357,355.522 270,343.5C 271.742,340.254 274.242,337.921 277.5,336.5 Z"/></g>
</svg>
