<svg xmlns="http://www.w3.org/2000/svg" xmlns:xlink="http://www.w3.org/1999/xlink" version="1.1" width="1000" height="1000" viewBox="0 0 1000 1000" xml:space="preserve">
<desc>Created with Fabric.js 3.5.0</desc>
<defs>
</defs>
<rect x="0" y="0" width="100%" height="100%" fill="#ffffff"/>
<g transform="matrix(0.2003 0 0 0.1597 520.305 882.9561)" id="417696">
<g style="" vector-effect="non-scaling-stroke">
		<g transform="matrix(1 0 0 1 -0.5 -0.5)">
<path style="stroke: none; stroke-width: 1; stroke-dasharray: none; stroke-linecap: butt; stroke-dashoffset: 0; stroke-linejoin: miter; stroke-miterlimit: 4; is-custom-font: none; font-file-url: none; fill: rgb(6,88,245); fill-rule: evenodd; opacity: 1;" transform=" translate(-249.5, -249.5)" d="M -0.5 -0.5 C 166.167 -0.5 332.833 -0.5 499.5 -0.5 C 499.5 166.167 499.5 332.833 499.5 499.5 C 332.833 499.5 166.167 499.5 -0.5 499.5 C -0.5 332.833 -0.5 166.167 -0.5 -0.5 Z" stroke-linecap="round"/>
</g>
		<g transform="matrix(1 0 0 1 59.1225 -35.5596)">
<path style="stroke: none; stroke-width: 1; stroke-dasharray: none; stroke-linecap: butt; stroke-dashoffset: 0; stroke-linejoin: miter; stroke-miterlimit: 4; is-custom-font: none; font-file-url: none; fill: rgb(232,235,242); fill-rule: evenodd; opacity: 1;" transform=" translate(-309.1225, -214.4403)" d="M 306.5 208.5 C 313.56 207.725 316.06 210.725 314 217.5 C 310.667 221.5 307.333 221.5 304 217.5 C 302.927 213.9 303.76 210.9 306.5 208.5 Z" stroke-linecap="round"/>
</g>
		<g transform="matrix(1 0 0 1 -9 -13.4999)">
<path style="stroke: none; stroke-width: 1; stroke-dasharray: none; stroke-linecap: butt; stroke-dashoffset: 0; stroke-linejoin: miter; stroke-miterlimit: 4; is-custom-font: none; font-file-url: none; fill: rgb(238,239,242); fill-rule: evenodd; opacity: 1;" transform=" translate(-241, -236.5001)" d="M 225.5 209.5 C 227.5 209.5 229.5 209.5 231.5 209.5 C 231.334 219.839 231.5 230.172 232 240.5 C 237.167 235.333 242.333 230.167 247.5 225 C 251.5 224.333 255.5 224.333 259.5 225 C 253.652 230.681 247.985 236.515 242.5 242.5 C 248.314 249.482 254.314 256.315 260.5 263 C 256.167 263.667 251.833 263.667 247.5 263 C 242.218 257.595 237.051 252.095 232 246.5 C 231.501 252.157 231.334 257.824 231.5 263.5 C 228.167 263.5 224.833 263.5 221.5 263.5 C 221.5 245.833 221.5 228.167 221.5 210.5 C 223.099 210.768 224.432 210.434 225.5 209.5 Z" stroke-linecap="round"/>
</g>
		<g transform="matrix(1 0 0 1 30.4726 -13.5)">
<path style="stroke: none; stroke-width: 1; stroke-dasharray: none; stroke-linecap: butt; stroke-dashoffset: 0; stroke-linejoin: miter; stroke-miterlimit: 4; is-custom-font: none; font-file-url: none; fill: rgb(234,236,242); fill-rule: evenodd; opacity: 1;" transform=" translate(-280.4726, -236.5)" d="M 270.5 209.5 C 271.167 215.346 271.833 221.346 272.5 227.5 C 273.107 227.376 273.44 227.043 273.5 226.5 C 284.273 221.035 292.44 223.702 298 234.5 C 298.5 244.161 298.666 253.828 298.5 263.5 C 294.833 263.5 291.167 263.5 287.5 263.5 C 287.666 254.494 287.5 245.494 287 236.5 C 282.62 231.657 277.954 231.323 273 235.5 C 272.5 244.827 272.334 254.161 272.5 263.5 C 269.167 263.5 265.833 263.5 262.5 263.5 C 262.181 245.757 262.514 228.09 263.5 210.5 C 265.861 210.326 268.194 209.993 270.5 209.5 Z" stroke-linecap="round"/>
</g>
		<g transform="matrix(1 0 0 1 22 -32)">
<path style="stroke: none; stroke-width: 1; stroke-dasharray: none; stroke-linecap: butt; stroke-dashoffset: 0; stroke-linejoin: miter; stroke-miterlimit: 4; is-custom-font: none; font-file-url: none; fill: rgb(133,170,244); fill-rule: evenodd; opacity: 1;" transform=" translate(-272, -218)" d="M 270.5 209.5 C 270.56 208.957 270.893 208.624 271.5 208.5 C 272.167 214.654 272.833 220.654 273.5 226.5 C 273.44 227.043 273.107 227.376 272.5 227.5 C 271.833 221.346 271.167 215.346 270.5 209.5 Z" stroke-linecap="round"/>
</g>
		<g transform="matrix(1 0 0 1 75.5 -13.5)">
<path style="stroke: none; stroke-width: 1; stroke-dasharray: none; stroke-linecap: butt; stroke-dashoffset: 0; stroke-linejoin: miter; stroke-miterlimit: 4; is-custom-font: none; font-file-url: none; fill: rgb(241,241,242); fill-rule: evenodd; opacity: 1;" transform=" translate(-325.5, -236.5)" d="M 324.5 209.5 C 326.5 209.5 328.5 209.5 330.5 209.5 C 330.5 227.5 330.5 245.5 330.5 263.5 C 327.167 263.5 323.833 263.5 320.5 263.5 C 320.5 245.833 320.5 228.167 320.5 210.5 C 322.099 210.768 323.432 210.434 324.5 209.5 Z" stroke-linecap="round"/>
</g>
		<g transform="matrix(1 0 0 1 -58 -12.5458)">
<path style="stroke: none; stroke-width: 1; stroke-dasharray: none; stroke-linecap: butt; stroke-dashoffset: 0; stroke-linejoin: miter; stroke-miterlimit: 4; is-custom-font: none; font-file-url: none; fill: rgb(237,238,242); fill-rule: evenodd; opacity: 1;" transform=" translate(-192, -237.4542)" d="M 185.5 211.5 C 190.099 211.2 194.599 211.533 199 212.5 C 205.557 229.281 212.39 245.947 219.5 262.5 C 215.5 263.833 211.5 263.833 207.5 262.5 C 205.833 258.5 204.167 254.5 202.5 250.5 C 195.167 249.167 187.833 249.167 180.5 250.5 C 178.731 254.644 177.064 258.81 175.5 263 C 171.789 263.825 168.122 263.659 164.5 262.5 C 171.312 245.39 178.312 228.39 185.5 211.5 Z" stroke-linecap="round"/>
</g>
		<g transform="matrix(1 0 0 1 12.5 -13)">
<path style="stroke: none; stroke-width: 1; stroke-dasharray: none; stroke-linecap: butt; stroke-dashoffset: 0; stroke-linejoin: miter; stroke-miterlimit: 4; is-custom-font: none; font-file-url: none; fill: rgb(183,203,243); fill-rule: evenodd; opacity: 1;" transform=" translate(-262.5, -237)" d="M 263.5 210.5 C 262.514 228.09 262.181 245.757 262.5 263.5 C 261.834 254.84 261.5 246.006 261.5 237 C 261.502 227.807 262.168 218.974 263.5 210.5 Z" stroke-linecap="round"/>
</g>
		<g transform="matrix(1 0 0 1 -58.5 -17.9393)">
<path style="stroke: none; stroke-width: 1; stroke-dasharray: none; stroke-linecap: butt; stroke-dashoffset: 0; stroke-linejoin: miter; stroke-miterlimit: 4; is-custom-font: none; font-file-url: none; fill: rgb(44,98,245); fill-rule: evenodd; opacity: 1;" transform=" translate(-191.5, -232.0607)" d="M 191.5 222.5 C 194.632 228.45 196.965 234.784 198.5 241.5 C 193.786 241.827 189.12 241.493 184.5 240.5 C 186.841 234.471 189.175 228.471 191.5 222.5 Z" stroke-linecap="round"/>
</g>
		<g transform="matrix(1 0 0 1 59 -6)">
<path style="stroke: none; stroke-width: 1; stroke-dasharray: none; stroke-linecap: butt; stroke-dashoffset: 0; stroke-linejoin: miter; stroke-miterlimit: 4; is-custom-font: none; font-file-url: none; fill: rgb(229,232,242); fill-rule: evenodd; opacity: 1;" transform=" translate(-309, -244)" d="M 303.5 224.5 C 307.167 224.5 310.833 224.5 314.5 224.5 C 314.5 237.5 314.5 250.5 314.5 263.5 C 310.833 263.5 307.167 263.5 303.5 263.5 C 303.5 250.5 303.5 237.5 303.5 224.5 Z" stroke-linecap="round"/>
</g>
		<g transform="matrix(1 0 0 1 3.5 25.5574)">
<path style="stroke: none; stroke-width: 1; stroke-dasharray: none; stroke-linecap: butt; stroke-dashoffset: 0; stroke-linejoin: miter; stroke-miterlimit: 4; is-custom-font: none; font-file-url: none; fill: rgb(25,99,245); fill-rule: evenodd; opacity: 1;" transform=" translate(-253.5, -275.5574)" d="M 93.5 275.5 C 200.001 274.168 306.667 274.168 413.5 275.5 C 410.914 276.48 408.247 276.813 405.5 276.5 C 301.668 275.501 197.668 275.167 93.5 275.5 Z" stroke-linecap="round"/>
</g>
		<g transform="matrix(1 0 0 1 -0.5 31.9377)">
<path style="stroke: none; stroke-width: 1; stroke-dasharray: none; stroke-linecap: butt; stroke-dashoffset: 0; stroke-linejoin: miter; stroke-miterlimit: 4; is-custom-font: none; font-file-url: none; fill: rgb(239,240,242); fill-rule: evenodd; opacity: 1;" transform=" translate(-249.5, -281.9376)" d="M 93.5 275.5 C 197.668 275.167 301.668 275.501 405.5 276.5 C 304.313 279.956 203.147 283.956 102 288.5 C 99.9063 288.464 97.9063 288.131 96 287.5 C 95.479 283.394 94.6457 279.394 93.5 275.5 Z" stroke-linecap="round"/>
</g>
		<g transform="matrix(1 0 0 1 -42.6508 67.8965)">
<path style="stroke: none; stroke-width: 1; stroke-dasharray: none; stroke-linecap: butt; stroke-dashoffset: 0; stroke-linejoin: miter; stroke-miterlimit: 4; is-custom-font: none; font-file-url: none; fill: rgb(230,233,242); fill-rule: evenodd; opacity: 1;" transform=" translate(-207.3492, -317.8965)" d="M 204.5 312.5 C 210.83 311.666 213.663 314.333 213 320.5 C 210.177 323.571 206.844 324.238 203 322.5 C 200.729 318.697 201.229 315.363 204.5 312.5 Z" stroke-linecap="round"/>
</g>
		<g transform="matrix(1 0 0 1 74.4726 90.5)">
<path style="stroke: none; stroke-width: 1; stroke-dasharray: none; stroke-linecap: butt; stroke-dashoffset: 0; stroke-linejoin: miter; stroke-miterlimit: 4; is-custom-font: none; font-file-url: none; fill: rgb(234,236,242); fill-rule: evenodd; opacity: 1;" transform=" translate(-324.4726, -340.5)" d="M 314.5 313.5 C 315.167 319.346 315.833 325.346 316.5 331.5 C 317.107 331.376 317.44 331.043 317.5 330.5 C 328.273 325.035 336.44 327.702 342 338.5 C 342.5 348.161 342.666 357.828 342.5 367.5 C 338.833 367.5 335.167 367.5 331.5 367.5 C 331.666 358.494 331.5 349.494 331 340.5 C 326.62 335.657 321.954 335.323 317 339.5 C 316.5 348.827 316.334 358.161 316.5 367.5 C 313.167 367.5 309.833 367.5 306.5 367.5 C 306.181 349.757 306.514 332.09 307.5 314.5 C 309.861 314.326 312.194 313.993 314.5 313.5 Z" stroke-linecap="round"/>
</g>
		<g transform="matrix(1 0 0 1 66 72)">
<path style="stroke: none; stroke-width: 1; stroke-dasharray: none; stroke-linecap: butt; stroke-dashoffset: 0; stroke-linejoin: miter; stroke-miterlimit: 4; is-custom-font: none; font-file-url: none; fill: rgb(133,170,244); fill-rule: evenodd; opacity: 1;" transform=" translate(-316, -322)" d="M 314.5 313.5 C 314.56 312.957 314.893 312.624 315.5 312.5 C 316.167 318.654 316.833 324.654 317.5 330.5 C 317.44 331.043 317.107 331.376 316.5 331.5 C 315.833 325.346 315.167 319.346 314.5 313.5 Z" stroke-linecap="round"/>
</g>
		<g transform="matrix(1 0 0 1 -74.0211 91.3124)">
<path style="stroke: none; stroke-width: 1; stroke-dasharray: none; stroke-linecap: butt; stroke-dashoffset: 0; stroke-linejoin: miter; stroke-miterlimit: 4; is-custom-font: none; font-file-url: none; fill: rgb(235,237,242); fill-rule: evenodd; opacity: 1;" transform=" translate(-175.9789, -341.3124)" d="M 168.5 314.5 C 179.164 313.415 188.83 315.915 197.5 322 C 195.69 324.644 193.69 327.144 191.5 329.5 C 185.179 324.89 178.179 323.057 170.5 324 C 164.874 326.487 164.208 329.82 168.5 334 C 175.859 335.45 183.193 337.117 190.5 339 C 200.396 346.516 201.062 354.849 192.5 364 C 178.321 371.181 165.321 369.514 153.5 359 C 155.31 356.356 157.31 353.856 159.5 351.5 C 167.79 359.148 176.957 360.482 187 355.5 C 187.944 352.653 187.444 350.153 185.5 348 C 178.12 346.548 170.787 344.881 163.5 343 C 155.495 338.133 153.328 331.3 157 322.5 C 160.15 318.689 163.983 316.023 168.5 314.5 Z" stroke-linecap="round"/>
</g>
		<g transform="matrix(1 0 0 1 56.5 91)">
<path style="stroke: none; stroke-width: 1; stroke-dasharray: none; stroke-linecap: butt; stroke-dashoffset: 0; stroke-linejoin: miter; stroke-miterlimit: 4; is-custom-font: none; font-file-url: none; fill: rgb(183,203,243); fill-rule: evenodd; opacity: 1;" transform=" translate(-306.5, -341)" d="M 307.5 314.5 C 306.514 332.09 306.181 349.757 306.5 367.5 C 305.834 358.84 305.5 350.006 305.5 341 C 305.502 331.807 306.168 322.974 307.5 314.5 Z" stroke-linecap="round"/>
</g>
		<g transform="matrix(1 0 0 1 -12.9265 97.4624)">
<path style="stroke: none; stroke-width: 1; stroke-dasharray: none; stroke-linecap: butt; stroke-dashoffset: 0; stroke-linejoin: miter; stroke-miterlimit: 4; is-custom-font: none; font-file-url: none; fill: rgb(235,237,242); fill-rule: evenodd; opacity: 1;" transform=" translate(-237.0735, -347.4624)" d="M 235.5 327.5 C 243.464 326.899 249.631 329.899 254 336.5 C 255.426 346.754 255.926 357.088 255.5 367.5 C 251.833 367.5 248.167 367.5 244.5 367.5 C 244.666 358.494 244.5 349.494 244 340.5 C 239 335.167 234 335.167 229 340.5 C 228.5 349.494 228.334 358.494 228.5 367.5 C 225.167 367.5 221.833 367.5 218.5 367.5 C 218.5 354.5 218.5 341.5 218.5 328.5 C 221.833 328.5 225.167 328.5 228.5 328.5 C 228.351 329.552 228.517 330.552 229 331.5 C 231.013 329.752 233.18 328.418 235.5 327.5 Z" stroke-linecap="round"/>
</g>
		<g transform="matrix(1 0 0 1 29.3515 106.0161)">
<path style="stroke: none; stroke-width: 1; stroke-dasharray: none; stroke-linecap: butt; stroke-dashoffset: 0; stroke-linejoin: miter; stroke-miterlimit: 4; is-custom-font: none; font-file-url: none; fill: rgb(236,238,242); fill-rule: evenodd; opacity: 1;" transform=" translate(-279.3515, -356.0161)" d="M 271.5 328.5 C 277.328 328.05 282.995 328.716 288.5 330.5 C 291.899 328.688 295.566 328.021 299.5 328.5 C 299.937 344.224 299.437 359.891 298 375.5 C 293.327 381.77 286.993 384.436 279 383.5 C 274.299 383.721 269.799 382.887 265.5 381 C 264.59 377.623 265.59 374.79 268.5 372.5 C 274.013 374.45 279.68 374.95 285.5 374 C 288.77 371.624 289.936 368.458 289 364.5 C 275.991 370.828 266.324 367.494 260 354.5 C 257.074 342.695 260.908 334.028 271.5 328.5 Z" stroke-linecap="round"/>
</g>
		<g transform="matrix(1 0 0 1 -42.5 98)">
<path style="stroke: none; stroke-width: 1; stroke-dasharray: none; stroke-linecap: butt; stroke-dashoffset: 0; stroke-linejoin: miter; stroke-miterlimit: 4; is-custom-font: none; font-file-url: none; fill: rgb(241,241,242); fill-rule: evenodd; opacity: 1;" transform=" translate(-207.5, -348)" d="M 202.5 328.5 C 205.833 328.5 209.167 328.5 212.5 328.5 C 212.5 341.5 212.5 354.5 212.5 367.5 C 209.167 367.5 205.833 367.5 202.5 367.5 C 202.5 354.5 202.5 341.5 202.5 328.5 Z" stroke-linecap="round"/>
</g>
		<g transform="matrix(1 0 0 1 29.6103 97.4997)">
<path style="stroke: none; stroke-width: 1; stroke-dasharray: none; stroke-linecap: butt; stroke-dashoffset: 0; stroke-linejoin: miter; stroke-miterlimit: 4; is-custom-font: none; font-file-url: none; fill: rgb(23,91,245); fill-rule: evenodd; opacity: 1;" transform=" translate(-279.6103, -347.4997)" d="M 277.5 336.5 C 281.54 336.118 285.207 337.118 288.5 339.5 C 289.663 344.802 289.829 350.136 289 355.5 C 288.097 356.701 286.931 357.535 285.5 358 C 273.523 360.355 268.357 355.522 270 343.5 C 271.742 340.254 274.242 337.921 277.5 336.5 Z" stroke-linecap="round"/>
</g>
</g>
</g>
</svg>